<svg width="138" height="138" viewBox="0 0 138 138" fill="none" xmlns="http://www.w3.org/2000/svg">
<path d="M52.3652 31.326C55.8037 21.2635 69.7072 20.9588 73.784 30.4118L74.129 31.3318L78.7692 44.9018C79.8327 48.0138 81.5511 50.8617 83.8087 53.2532C86.0663 55.6447 88.8105 57.5242 91.8562 58.765L93.104 59.2307L106.674 63.8653C116.736 67.3038 117.041 81.2072 107.594 85.284L106.674 85.629L93.104 90.2693C89.9908 91.332 87.1419 93.0501 84.7493 95.3077C82.3568 97.5654 80.4764 100.31 79.235 103.356L78.7692 104.598L74.1347 118.174C70.6962 128.237 56.7927 128.541 52.7217 119.094L52.3652 118.174L47.7307 104.604C46.668 101.491 44.9499 98.6419 42.6923 96.2494C40.4346 93.8568 37.69 91.9764 34.6437 90.735L33.4017 90.2693L19.8317 85.6347C9.76349 82.1962 9.45874 68.2927 18.9117 64.2217L19.8317 63.8653L33.4017 59.2307C36.5138 58.1673 39.3617 56.4489 41.7532 54.1913C44.1447 51.9337 46.0242 49.1895 47.265 46.1437L47.7307 44.9018L52.3652 31.326ZM109.25 11.5C110.326 11.5 111.38 11.8018 112.293 12.371C113.205 12.9402 113.94 13.754 114.413 14.72L114.689 15.3928L116.702 21.2923L122.607 23.3048C123.685 23.671 124.63 24.349 125.323 25.2529C126.015 26.1568 126.423 27.2459 126.496 28.3821C126.569 29.5183 126.302 30.6506 125.731 31.6353C125.159 32.62 124.308 33.4129 123.286 33.9135L122.607 34.1895L116.708 36.202L114.695 42.1072C114.328 43.185 113.65 44.1295 112.746 44.8212C111.841 45.5129 110.752 45.9206 109.616 45.9927C108.48 46.0647 107.348 45.7979 106.363 45.2259C105.379 44.654 104.587 43.8027 104.086 42.78L103.81 42.1072L101.798 36.2077L95.8927 34.1953C94.8147 33.829 93.8697 33.151 93.1774 32.2471C92.4852 31.3432 92.0768 30.2541 92.0041 29.1179C91.9315 27.9817 92.1978 26.8494 92.7692 25.8647C93.3407 24.88 94.1917 24.0871 95.2142 23.5865L95.8927 23.3105L101.792 21.298L103.805 15.3928C104.192 14.2567 104.926 13.2705 105.903 12.5724C106.879 11.8743 108.05 11.4993 109.25 11.5Z" fill="url(#paint0_linear_76_26)"/>
<defs>
<linearGradient id="paint0_linear_76_26" x1="69.2758" y1="11.5" x2="69.2758" y2="125.957" gradientUnits="userSpaceOnUse">
<stop stop-color="#FF3B30"/>
<stop offset="1" stop-color="#FFCC00"/>
</linearGradient>
</defs>
</svg>
