<svg width="138" height="138" viewBox="0 0 138 138" fill="none" xmlns="http://www.w3.org/2000/svg">
<path d="M100.809 86.8594C99.2787 86.8587 97.8113 86.25 96.7297 85.1674C95.6482 84.0847 95.041 82.6168 95.0417 81.0864C95.0425 79.5561 95.6512 78.0888 96.7338 77.0072C97.8165 75.9256 99.2844 75.3184 100.815 75.3192C102.345 75.3192 103.813 75.9271 104.895 77.0092C105.977 78.0913 106.585 79.559 106.585 81.0893C106.585 82.6196 105.977 84.0873 104.895 85.1694C103.813 86.2515 102.345 86.8594 100.815 86.8594M37.3117 86.8594C35.7814 86.8587 34.3141 86.25 33.2325 85.1674C32.1509 84.0847 31.5437 82.6168 31.5445 81.0864C31.5453 79.5561 32.1539 78.0888 33.2366 77.0072C34.3192 75.9256 35.7872 75.3184 37.3175 75.3192C38.8478 75.3192 40.3155 75.9271 41.3976 77.0092C42.4797 78.0913 43.0876 79.559 43.0876 81.0893C43.0876 82.6196 42.4797 84.0873 41.3976 85.1694C40.3155 86.2515 38.8421 86.8594 37.3117 86.8594ZM102.867 52.2559L114.402 32.3667C114.712 31.8169 114.792 31.1664 114.622 30.5582C114.453 29.95 114.049 29.434 113.499 29.1237C112.949 28.8134 112.299 28.7341 111.691 28.9034C111.083 29.0727 110.567 29.4767 110.256 30.0264L98.601 50.1514C89.3471 45.913 79.2818 43.739 69.1035 43.7804C58.466 43.7804 48.4322 46.0689 39.5427 50.0939L27.8875 29.9689C27.7338 29.6971 27.5281 29.4582 27.2821 29.2659C27.0361 29.0735 26.7547 28.9315 26.4538 28.848C26.1529 28.7644 25.8385 28.7409 25.5286 28.7788C25.2187 28.8168 24.9192 28.9154 24.6474 29.0691C24.3755 29.2227 24.1366 29.4284 23.9443 29.6744C23.752 29.9204 23.6099 30.2019 23.5264 30.5028C23.4428 30.8036 23.4193 31.118 23.4573 31.428C23.4952 31.7379 23.5938 32.0374 23.7475 32.3092L35.2188 52.1927C15.502 62.9452 1.98375 82.8977 0 106.507H138C136.08 82.9552 122.619 63.0084 102.856 52.2559" fill="#34C759"/>
</svg>
