<svg width="74" height="28" viewBox="0 0 74 28" fill="none" xmlns="http://www.w3.org/2000/svg">
<rect width="74" height="28" rx="6" fill="black"/>
<path d="M15.4609 22V5.99414H21.4443C23.0915 5.99414 24.3734 6.37728 25.29 7.14355C26.2139 7.90267 26.6758 8.92318 26.6758 10.2051C26.6758 11.1217 26.4359 11.8665 25.9561 12.4395C25.4834 13.0124 24.8281 13.4277 23.9902 13.6855V13.707C24.9212 13.8359 25.7054 14.2155 26.3428 14.8457C26.9873 15.4759 27.3096 16.3604 27.3096 17.499C27.3096 18.8597 26.8333 19.9518 25.8809 20.7754C24.9355 21.5918 23.5176 22 21.627 22H15.4609ZM17.8242 19.9912H21.4766C22.5651 19.9912 23.403 19.7799 23.9902 19.3574C24.5846 18.9277 24.8818 18.3047 24.8818 17.4883C24.8818 16.679 24.5918 16.0381 24.0117 15.5654C23.4388 15.0928 22.6224 14.8564 21.5625 14.8564H17.8242V19.9912ZM17.8242 12.8906H21.4121C22.3216 12.8906 23.0306 12.6722 23.5391 12.2354C24.0547 11.7985 24.3125 11.2041 24.3125 10.4521C24.3125 9.7002 24.0547 9.10579 23.5391 8.66895C23.0306 8.22493 22.3216 8.00293 21.4121 8.00293H17.8242V12.8906ZM34.2168 22.2578C33.0924 22.2578 32.1257 22.0036 31.3164 21.4951C30.5143 20.9867 29.8949 20.2884 29.458 19.4004C29.0283 18.5052 28.8135 17.4883 28.8135 16.3496C28.8135 15.1966 29.0391 14.1725 29.4902 13.2773C29.9414 12.3822 30.5645 11.6803 31.3594 11.1719C32.1543 10.6562 33.0674 10.3984 34.0986 10.3984C35.1729 10.3984 36.1038 10.6491 36.8916 11.1504C37.6865 11.6517 38.3024 12.3499 38.7393 13.2451C39.1761 14.1331 39.3945 15.1608 39.3945 16.3281V16.9404H31.0479C31.0908 17.9645 31.3844 18.7917 31.9287 19.4219C32.4801 20.0521 33.2536 20.3672 34.249 20.3672C34.9938 20.3672 35.6061 20.1989 36.0859 19.8623C36.5658 19.5257 36.8844 19.0889 37.042 18.5518H39.2227C39.0866 19.2822 38.7822 19.9268 38.3096 20.4854C37.8441 21.0439 37.2568 21.4808 36.5479 21.7959C35.846 22.1038 35.069 22.2578 34.2168 22.2578ZM31.0693 15.2217H37.1816C37.0885 14.3193 36.7699 13.6068 36.2256 13.084C35.6813 12.554 34.9795 12.2891 34.1201 12.2891C33.2607 12.2891 32.5589 12.554 32.0146 13.084C31.4775 13.6068 31.1624 14.3193 31.0693 15.2217ZM46.8281 10.6562V12.5254H44.5293V19.0029C44.5293 19.4255 44.6152 19.7191 44.7871 19.8838C44.959 20.0485 45.2705 20.1309 45.7217 20.1309H46.8281V22H45.3994C43.3011 22 42.252 21.0977 42.252 19.293V12.5254H40.2539V10.6562H42.252V7.5625H44.5293V10.6562H46.8281ZM52.3604 22.1826C51.2288 22.1826 50.2907 21.8962 49.5459 21.3232C48.8011 20.7432 48.4287 19.8874 48.4287 18.7559C48.4287 17.8965 48.64 17.2376 49.0625 16.7793C49.4922 16.3138 50.0472 15.9808 50.7275 15.7803C51.415 15.5798 52.1419 15.4329 52.9082 15.3398C53.6172 15.2539 54.1794 15.1823 54.5947 15.125C55.0101 15.0677 55.3037 14.9818 55.4756 14.8672C55.6546 14.7526 55.7441 14.5557 55.7441 14.2764V14.1797C55.7441 13.6283 55.5436 13.1771 55.1426 12.8262C54.7415 12.4681 54.1794 12.2891 53.4561 12.2891C52.7327 12.2891 52.1419 12.4645 51.6836 12.8154C51.2253 13.1592 50.9746 13.5924 50.9316 14.1152H48.708C48.7581 13.0339 49.2129 12.1494 50.0723 11.4619C50.9316 10.7744 52.0703 10.4307 53.4883 10.4307C54.8848 10.4307 55.984 10.7744 56.7861 11.4619C57.5882 12.1494 57.9893 13.0697 57.9893 14.2227V22H55.7549V20.3887H55.7119C55.4756 20.847 55.0996 21.2624 54.584 21.6348C54.0755 22 53.3343 22.1826 52.3604 22.1826ZM52.8223 20.3564C53.8249 20.3564 54.5625 20.0986 55.0352 19.583C55.515 19.0602 55.7549 18.4515 55.7549 17.7568V16.4248C55.6045 16.5465 55.2643 16.6576 54.7344 16.7578C54.2044 16.8509 53.6387 16.9404 53.0371 17.0264C52.4141 17.1195 51.8662 17.2949 51.3936 17.5527C50.9209 17.8105 50.6846 18.2259 50.6846 18.7988C50.6846 19.2858 50.8743 19.6689 51.2539 19.9482C51.6406 20.2204 52.1634 20.3564 52.8223 20.3564Z" fill="white"/>
</svg>
