<svg width="1440" height="1024" viewBox="0 0 1440 1024" fill="none" xmlns="http://www.w3.org/2000/svg">
<g clip-path="url(#clip0_55_110)">
<g clip-path="url(#clip1_55_110)">
<path d="M723.42 629.601L829.367 446.186H1106.41L1281.28 748.909L1317.62 686.031L1142.83 383.308H817.612C802.4 383.308 788.417 391.369 780.811 404.498L699.372 545.456C691.766 558.585 691.766 574.784 699.372 587.913L723.42 629.601Z" fill="#191919" fill-opacity="0.2"/>
<path d="M1351.5 629.601L1387.84 566.723L1225.27 285.267C1217.66 272.061 1203.6 264 1188.47 264H1025.59C1010.38 264 996.394 272.061 988.788 285.19L964.741 326.879H1176.64L1351.5 629.601Z" fill="#191919" fill-opacity="0.2"/>
<path d="M893.597 797.354L1068.46 494.631H995.78L820.916 797.354L983.564 1078.81C991.17 1091.94 1005.15 1100 1020.37 1100H1183.24C1198.46 1100 1212.44 1091.94 1220.04 1078.81L1244.09 1037.12H1032.2L893.673 797.354H893.597Z" fill="#191919" fill-opacity="0.2"/>
<path d="M930.014 493.556H857.333L694.685 775.013C687.079 788.141 687.079 804.34 694.685 817.469L776.124 958.427C783.731 971.556 797.714 979.617 812.926 979.617H861.098L755.15 796.202L930.014 493.556Z" fill="#191919" fill-opacity="0.2"/>
<path d="M1304.33 806.03H954.599L990.939 868.908H1340.67L1503.31 587.452C1510.92 574.323 1510.92 558.124 1503.31 544.995L1421.88 404.037C1414.27 390.909 1400.29 382.847 1385.07 382.847H1336.9L1442.85 566.262L1304.33 806.03Z" fill="#191919" fill-opacity="0.2"/>
<path d="M1478.58 742.998L1372.63 926.412H1022.9L1059.24 989.291H1384.46C1399.67 989.291 1413.65 981.23 1421.26 968.101L1502.7 827.143C1510.31 814.014 1510.31 797.815 1502.7 784.686L1478.65 742.998H1478.58Z" fill="#191919" fill-opacity="0.2"/>
</g>
</g>
<defs>
<clipPath id="clip0_55_110">
<rect width="1440" height="1024" fill="white"/>
</clipPath>
<clipPath id="clip1_55_110">
<rect width="820" height="836" fill="white" transform="translate(689 264)"/>
</clipPath>
</defs>
</svg>
