<svg width="106" height="106" viewBox="0 0 106 106" fill="none" xmlns="http://www.w3.org/2000/svg">
<path d="M98.9907 83.2762L66.25 28.7194V6.625H69.5625C71.3843 6.625 72.875 5.13438 72.875 3.3125C72.875 1.49062 71.3843 0 69.5625 0H36.4375C34.6156 0 33.125 1.49062 33.125 3.3125C33.125 5.13438 34.6156 6.625 36.4375 6.625H39.75V28.7194L7.0092 83.2762C-0.490297 95.771 5.29995 106 19.875 106H86.125C100.7 106 106.49 95.7776 98.9907 83.2762ZM24.9497 66.25L46.375 30.5413V6.625H59.625V30.5413L81.0502 66.25H24.9497Z" fill="#FF9500"/>
</svg>
