<svg width="138" height="138" viewBox="0 0 138 138" fill="none" xmlns="http://www.w3.org/2000/svg">
<path d="M30.8775 9.70315C31.5949 10.3282 32.0853 11.173 32.2725 12.1059C32.4597 13.0388 32.3332 14.0074 31.9125 14.8609C31.8359 15.1124 31.7981 15.3742 31.8004 15.6371C31.8004 16.1805 31.9384 17.2155 33.2408 18.5093C33.8704 19.1389 34.3534 19.5874 34.8795 20.079C35.3108 20.4758 35.7679 20.8898 36.3458 21.459C37.467 22.5285 38.6487 23.7878 39.7095 25.3661C41.9089 28.6695 43.125 32.8009 43.125 38.8125C43.125 42.1073 42.5817 45.195 41.5898 47.9291C38.778 55.6916 32.4559 60.375 25.875 60.375C19.2942 60.375 12.972 55.683 10.1603 47.9291C9.12305 45.0025 8.60354 41.9175 8.62503 38.8125C8.62503 36.0008 9.37541 32.6456 10.4104 29.5493C11.4454 26.4529 12.8944 23.2358 14.5677 20.6483C16.56 17.2845 19.3632 14.4641 21.5367 12.5666C22.7326 11.5239 23.976 10.5368 25.2627 9.60827L25.5214 9.43577L25.599 9.3754L25.6249 9.35815L25.6422 9.34952C26.433 8.82233 27.3759 8.57119 28.3243 8.63514C29.2726 8.69909 30.1732 9.07455 30.8862 9.70315M25.875 69C31.3533 69.0139 36.6612 67.096 40.8653 63.5835C41.0378 64.124 41.2017 64.6703 41.3569 65.2223C43.125 71.7083 43.125 79.7295 43.125 85.9309V86.25C43.125 104 39.8044 114.54 36.0439 120.81C34.6191 123.276 32.754 125.46 30.5412 127.253C29.6609 127.934 28.706 128.513 27.6949 128.978C27.6949 128.978 26.5995 129.375 25.875 129.375C25.2533 129.326 24.6411 129.192 24.0552 128.978C23.044 128.513 22.0891 127.934 21.2089 127.253C18.9961 125.46 17.131 123.276 15.7062 120.81C11.9457 114.549 8.62503 104 8.62503 86.25V85.9395C8.62503 79.7295 8.62503 71.7169 10.3932 65.2136C10.5427 64.6731 10.7065 64.1269 10.8848 63.5749C15.0853 67.0967 20.3935 69.0239 25.875 69.0173M60.3578 94.6594C57.3681 94.3257 54.4274 93.6455 51.5948 92.6325C51.6983 90.459 51.75 88.2165 51.75 85.905V83.352C54.4238 84.6199 57.3218 85.5083 60.3578 85.9395V69C60.3578 64.425 62.1752 60.0374 65.4102 56.8024C68.6452 53.5674 73.0328 51.75 77.6078 51.75H94.5559C93.8699 46.9812 92.0524 42.4458 89.2553 38.523C86.4582 34.6001 82.7629 31.4038 78.478 29.201C74.1932 26.9982 69.4433 25.8529 64.6254 25.861C59.8075 25.8691 55.0615 27.0302 50.784 29.2474C50.1065 26.4277 48.9888 23.7324 47.472 21.2606C53.0621 18.4979 59.2356 17.1227 65.4698 17.2515C71.704 17.3802 77.8154 19.0092 83.2866 22.0003C88.7579 24.9915 93.4279 29.2569 96.9014 34.4353C100.375 39.6138 102.55 45.553 103.241 51.75H112.099C116.674 51.75 121.062 53.5674 124.297 56.8024C127.532 60.0374 129.349 64.425 129.349 69V103.5C129.349 108.075 127.532 112.463 124.297 115.698C121.062 118.933 116.674 120.75 112.099 120.75H77.5992C73.0242 120.75 68.6366 118.933 65.4016 115.698C62.1666 112.463 60.3492 108.075 60.3492 103.5L60.3578 94.6594ZM103.25 60.375C102.273 69.1271 98.3486 77.2867 92.1216 83.5138C85.8945 89.7409 77.7348 93.6652 68.9828 94.6421V103.5C68.9828 105.788 69.8915 107.981 71.509 109.599C73.1265 111.216 75.3203 112.125 77.6078 112.125H112.108C114.395 112.125 116.589 111.216 118.207 109.599C119.824 107.981 120.733 105.788 120.733 103.5V69C120.733 66.7125 119.824 64.5187 118.207 62.9012C116.589 61.2837 114.395 60.375 112.108 60.375H103.25ZM94.5559 60.375H77.6078C75.3203 60.375 73.1265 61.2837 71.509 62.9012C69.8915 64.5187 68.9828 66.7125 68.9828 69V85.9481C75.4352 85.0183 81.4132 82.0247 86.0228 77.4151C90.6325 72.8054 93.6261 66.8274 94.5559 60.375Z" fill="#5856D6"/>
</svg>
