<svg width="106" height="106" viewBox="0 0 106 106" fill="none" xmlns="http://www.w3.org/2000/svg">
<g clip-path="url(#clip0_80_55)">
<path d="M105.377 39.3412C103.508 31.0422 98.0273 25.2428 93.1308 26.379C89.2661 27.278 65.7863 42.5719 56.1004 48.9641C64.3845 40.8034 84.3112 20.9747 86.0342 17.3489C88.2148 12.7548 83.8537 6.04641 76.3094 2.35138C68.7553 -1.33377 60.8703 -0.60267 58.6898 3.98154C56.9667 7.61729 54.1145 35.7845 52.995 47.4426C51.8755 35.7845 49.0233 7.60741 47.3003 3.98154C45.1197 -0.60267 37.2347 -1.33377 29.6807 2.35138C22.1266 6.03653 17.7753 12.7548 19.9558 17.3489C21.6788 20.9846 41.6055 40.8034 49.8897 48.9641C40.2038 42.5818 16.7239 27.278 12.8593 26.3888C7.96278 25.2527 2.4822 31.062 0.61316 39.3511C-1.25588 47.6501 1.20697 55.2872 6.10347 56.4233C9.96811 57.3224 37.663 53.8744 49.1206 52.3825C38.1692 56.0874 11.7398 65.1768 8.63447 67.6863C4.71142 70.8675 5.76276 78.8306 10.9902 85.4797C16.2177 92.1288 23.6355 94.9445 27.5585 91.7632C30.6639 89.2538 45.2755 65.1274 51.2623 55.1192C47.2905 66.1154 37.809 92.7512 37.809 96.7822C37.809 101.88 44.6038 106.01 52.9853 106.01C61.3668 106.01 68.1615 101.88 68.1615 96.7822C68.1615 92.7512 58.6898 66.1253 54.7083 55.1192C60.7048 65.1373 75.3164 89.2538 78.412 91.7632C82.3351 94.9445 89.7528 92.1189 94.9803 85.4797C100.208 78.8405 101.259 70.8675 97.3361 67.6863C94.2308 65.1768 67.8111 56.0874 56.8499 52.3825C68.3075 53.8645 95.9927 57.3125 99.8671 56.4233C104.783 55.2872 107.236 47.6402 105.367 39.3511L105.377 39.3412Z" fill="#007AFF"/>
</g>
<defs>
<clipPath id="clip0_80_55">
<rect width="106" height="106" fill="white"/>
</clipPath>
</defs>
</svg>
