<svg width="1728" height="426" viewBox="0 0 1728 426" fill="none" xmlns="http://www.w3.org/2000/svg">
<path d="M59.6777 120.825V350H19.0723V120.825H59.6777ZM97.8223 350V120.825H141.658L222.1 248.64C224.868 252.947 228.508 259.048 233.02 266.943C237.532 274.839 242.095 282.888 246.709 291.091C246.401 282.478 246.145 273.916 245.94 265.405C245.837 256.792 245.786 250.229 245.786 245.718V120.825H286.545V350H242.556L169.958 234.951C166.677 229.824 162.166 222.441 156.423 212.803C150.681 203.062 144.324 191.987 137.351 179.58C137.864 192.295 138.171 203.42 138.274 212.957C138.376 222.493 138.428 229.773 138.428 234.797V350H97.8223ZM312.847 156.047V120.825H496.033V156.047H424.973V350H384.214V156.047H312.847ZM522.334 350V120.825H611.697C628.513 120.825 643.022 123.799 655.225 129.746C667.529 135.693 677.014 144.153 683.679 155.125C690.344 166.096 693.677 179.067 693.677 194.038C693.677 209.624 689.832 223.005 682.141 234.182C674.451 245.359 663.787 253.716 650.149 259.253L697.983 350H653.225L610.159 266.636C609.851 266.636 609.492 266.636 609.082 266.636H562.939V350H522.334ZM562.939 233.105H609.697C623.232 233.105 633.948 229.619 641.843 222.646C649.739 215.571 653.687 206.035 653.687 194.038C653.687 182.144 649.688 172.71 641.689 165.737C633.794 158.765 623.027 155.278 609.39 155.278H562.939V233.105ZM823.491 353.691C802.983 353.691 784.68 348.821 768.582 339.08C752.585 329.236 739.922 315.496 730.591 297.859C721.362 280.12 716.748 259.355 716.748 235.566C716.748 211.675 721.362 190.859 730.591 173.12C739.922 155.381 752.585 141.641 768.582 131.899C784.68 122.056 802.983 117.134 823.491 117.134C843.896 117.134 862.148 122.056 878.247 131.899C894.346 141.641 907.009 155.381 916.238 173.12C925.569 190.859 930.234 211.675 930.234 235.566C930.234 259.355 925.569 280.12 916.238 297.859C907.009 315.598 894.346 329.338 878.247 339.08C862.148 348.821 843.896 353.691 823.491 353.691ZM823.491 317.239C836.001 317.239 847.178 314.06 857.021 307.703C866.968 301.345 874.812 292.117 880.554 280.017C886.296 267.815 889.167 252.998 889.167 235.566C889.167 218.032 886.296 203.164 880.554 190.962C874.812 178.76 866.968 169.48 857.021 163.123C847.178 156.765 836.001 153.586 823.491 153.586C810.981 153.586 799.753 156.765 789.807 163.123C779.963 169.48 772.119 178.76 766.274 190.962C760.532 203.164 757.661 218.032 757.661 235.566C757.661 252.998 760.532 267.815 766.274 280.017C772.119 292.117 779.963 301.345 789.807 307.703C799.753 314.06 810.981 317.239 823.491 317.239ZM1012.21 350L930.388 120.825H974.377L1015.75 241.257C1018.83 250.896 1022.16 261.663 1025.75 273.557C1029.44 285.349 1033.49 298.525 1037.9 313.086C1042.21 298.525 1046.15 285.349 1049.74 273.557C1053.33 261.663 1056.61 250.896 1059.59 241.257L1099.58 120.825H1143.11L1062.82 350H1012.21ZM1164.33 350V120.825H1323.52V156.047H1204.94V216.34H1314.6V250.947H1204.94V314.778H1323.52V350H1164.33ZM1352.9 350V120.825H1442.26C1459.08 120.825 1473.59 123.799 1485.79 129.746C1498.1 135.693 1507.58 144.153 1514.25 155.125C1520.91 166.096 1524.24 179.067 1524.24 194.038C1524.24 209.624 1520.4 223.005 1512.71 234.182C1505.02 245.359 1494.35 253.716 1480.72 259.253L1528.55 350H1483.79L1440.73 266.636C1440.42 266.636 1440.06 266.636 1439.65 266.636H1393.51V350H1352.9ZM1393.51 233.105H1440.26C1453.8 233.105 1464.51 229.619 1472.41 222.646C1480.31 215.571 1484.25 206.035 1484.25 194.038C1484.25 182.144 1480.25 172.71 1472.26 165.737C1464.36 158.765 1453.59 155.278 1439.96 155.278H1393.51V233.105ZM1537.16 156.047V120.825H1720.35V156.047H1649.29V350H1608.53V156.047H1537.16Z" fill="#E4E4E4"/>
<path d="M43.9214 98H19.1152V24.5186H44.4639C51.7627 24.5186 58.0588 26.0145 63.3521 29.0063C68.6453 31.9653 72.7222 36.1901 75.5825 41.6807C78.4429 47.1383 79.873 53.6317 79.873 61.1606C79.873 68.7554 78.4429 75.3145 75.5825 80.8379C72.7222 86.3285 68.596 90.5697 63.2041 93.5615C57.8451 96.5205 51.4175 98 43.9214 98ZM32.1348 86.8545H43.231C51.2202 86.8545 57.1217 84.6188 60.9355 80.1475C64.7822 75.6432 66.7056 69.3143 66.7056 61.1606C66.7056 53.0728 64.7987 46.8096 60.9849 42.3711C57.1711 37.8997 51.3846 35.6641 43.6255 35.6641H32.1348V86.8545ZM111.929 99.1836C106.734 99.1836 102.23 98.0164 98.416 95.6821C94.6022 93.3478 91.6597 90.1423 89.5884 86.0654C87.55 81.9557 86.5308 77.2707 86.5308 72.0103C86.5308 66.717 87.5828 62.0319 89.687 57.9551C91.8241 53.8454 94.7666 50.6234 98.5146 48.2891C102.263 45.9219 106.57 44.7383 111.436 44.7383C116.433 44.7383 120.806 45.889 124.554 48.1904C128.302 50.4919 131.211 53.681 133.283 57.7578C135.354 61.8018 136.39 66.4868 136.39 71.813V75.2158H98.7119C98.8763 79.457 100.126 82.8763 102.46 85.4736C104.794 88.071 108.049 89.3696 112.225 89.3696C115.348 89.3696 117.929 88.6956 119.967 87.3477C122.006 85.9668 123.387 84.1585 124.11 81.9229H135.749C135.091 85.3092 133.644 88.3011 131.409 90.8984C129.206 93.4958 126.428 95.5342 123.074 97.0137C119.721 98.4603 116.006 99.1836 111.929 99.1836ZM98.8105 66.6348H124.455C124.061 62.9196 122.713 59.9935 120.411 57.8564C118.143 55.6865 115.216 54.6016 111.633 54.6016C108.016 54.6016 105.074 55.6865 102.805 57.8564C100.569 59.9935 99.238 62.9196 98.8105 66.6348ZM157.941 98L138.362 45.9219H151.53L161.048 73.0459C161.738 75.1172 162.396 77.1885 163.021 79.2598C163.678 81.2982 164.319 83.3366 164.944 85.375C165.569 83.3366 166.193 81.2982 166.818 79.2598C167.443 77.1885 168.084 75.1172 168.741 73.0459L178.111 45.9219H191.131L171.552 98H157.941ZM218.649 99.1836C213.455 99.1836 208.951 98.0164 205.137 95.6821C201.323 93.3478 198.38 90.1423 196.309 86.0654C194.271 81.9557 193.251 77.2707 193.251 72.0103C193.251 66.717 194.304 62.0319 196.408 57.9551C198.545 53.8454 201.487 50.6234 205.235 48.2891C208.983 45.9219 213.29 44.7383 218.156 44.7383C223.154 44.7383 227.526 45.889 231.274 48.1904C235.022 50.4919 237.932 53.681 240.003 57.7578C242.075 61.8018 243.11 66.4868 243.11 71.813V75.2158H205.433C205.597 79.457 206.846 82.8763 209.181 85.4736C211.515 88.071 214.77 89.3696 218.945 89.3696C222.069 89.3696 224.65 88.6956 226.688 87.3477C228.726 85.9668 230.107 84.1585 230.831 81.9229H242.469C241.812 85.3092 240.365 88.3011 238.129 90.8984C235.927 93.4958 233.148 95.5342 229.795 97.0137C226.441 98.4603 222.726 99.1836 218.649 99.1836ZM205.531 66.6348H231.176C230.781 62.9196 229.433 59.9935 227.132 57.8564C224.863 55.6865 221.937 54.6016 218.354 54.6016C214.737 54.6016 211.794 55.6865 209.526 57.8564C207.29 59.9935 205.959 62.9196 205.531 66.6348ZM264.021 24.5186V98H251.593V24.5186H264.021ZM298.345 99.1836C293.216 99.1836 288.728 98.0493 284.881 95.7808C281.035 93.4793 278.026 90.2902 275.856 86.2134C273.719 82.1366 272.651 77.4022 272.651 72.0103C272.651 66.6183 273.719 61.884 275.856 57.8071C278.026 53.6974 281.035 50.4919 284.881 48.1904C288.728 45.889 293.216 44.7383 298.345 44.7383C303.441 44.7383 307.912 45.889 311.759 48.1904C315.638 50.4919 318.647 53.6974 320.784 57.8071C322.954 61.884 324.039 66.6183 324.039 72.0103C324.039 77.4022 322.954 82.1366 320.784 86.2134C318.647 90.2902 315.638 93.4793 311.759 95.7808C307.912 98.0493 303.441 99.1836 298.345 99.1836ZM298.345 88.7778C302.323 88.7778 305.496 87.2819 307.863 84.29C310.23 81.2982 311.414 77.2049 311.414 72.0103C311.414 66.8156 310.23 62.7059 307.863 59.6812C305.496 56.6564 302.323 55.144 298.345 55.144C294.334 55.144 291.145 56.6564 288.777 59.6812C286.41 62.673 285.227 66.7827 285.227 72.0103C285.227 77.2049 286.41 81.2982 288.777 84.29C291.145 87.2819 294.334 88.7778 298.345 88.7778ZM332.669 118.614V45.9219H344.899V53.1714H345.047C346.691 50.4097 348.894 48.3384 351.656 46.9575C354.417 45.5767 357.475 44.8862 360.829 44.8862C365.3 44.8862 369.212 46.0369 372.566 48.3384C375.952 50.6069 378.583 53.7796 380.457 57.8564C382.363 61.9004 383.317 66.5854 383.317 71.9116C383.317 77.3364 382.38 82.0872 380.506 86.1641C378.665 90.208 376.051 93.3643 372.665 95.6328C369.278 97.9014 365.316 99.0356 360.779 99.0356C357.36 99.0356 354.319 98.2959 351.656 96.8164C349.026 95.3369 346.889 93.1177 345.245 90.1587H345.097V118.614H332.669ZM357.87 88.6299C361.716 88.6299 364.823 87.1997 367.19 84.3394C369.558 81.4461 370.741 77.3035 370.741 71.9116C370.741 66.5526 369.558 62.4264 367.19 59.5332C364.823 56.64 361.716 55.1934 357.87 55.1934C353.793 55.1934 350.521 56.7222 348.056 59.7798C345.623 62.8045 344.406 66.8485 344.406 71.9116C344.406 76.9748 345.623 81.0352 348.056 84.0928C350.521 87.1175 353.793 88.6299 357.87 88.6299ZM414.929 99.1836C409.734 99.1836 405.23 98.0164 401.416 95.6821C397.602 93.3478 394.66 90.1423 392.588 86.0654C390.55 81.9557 389.531 77.2707 389.531 72.0103C389.531 66.717 390.583 62.0319 392.687 57.9551C394.824 53.8454 397.767 50.6234 401.515 48.2891C405.263 45.9219 409.57 44.7383 414.436 44.7383C419.433 44.7383 423.806 45.889 427.554 48.1904C431.302 50.4919 434.211 53.681 436.283 57.7578C438.354 61.8018 439.39 66.4868 439.39 71.813V75.2158H401.712C401.876 79.457 403.126 82.8763 405.46 85.4736C407.794 88.071 411.049 89.3696 415.225 89.3696C418.348 89.3696 420.929 88.6956 422.967 87.3477C425.006 85.9668 426.387 84.1585 427.11 81.9229H438.749C438.091 85.3092 436.644 88.3011 434.409 90.8984C432.206 93.4958 429.428 95.5342 426.074 97.0137C422.721 98.4603 419.006 99.1836 414.929 99.1836ZM401.811 66.6348H427.455C427.061 62.9196 425.713 59.9935 423.411 57.8564C421.143 55.6865 418.216 54.6016 414.633 54.6016C411.016 54.6016 408.074 55.6865 405.805 57.8564C403.569 59.9935 402.238 62.9196 401.811 66.6348ZM447.872 98V45.9219H459.856V54.5522H460.004C460.957 51.5933 462.453 49.3411 464.492 47.7959C466.563 46.2178 469.275 45.4287 472.629 45.4287C473.484 45.4287 474.24 45.4616 474.897 45.5273C475.588 45.5602 476.18 45.5931 476.673 45.626V56.6729C476.213 56.6071 475.424 56.5249 474.306 56.4263C473.188 56.3276 472.021 56.2783 470.804 56.2783C467.845 56.2783 465.347 57.2975 463.308 59.3359C461.303 61.3743 460.3 64.432 460.3 68.5088V98H447.872Z" fill="#E4E4E4"/>
</svg>
