<svg width="47" height="48" viewBox="0 0 47 48" fill="none" xmlns="http://www.w3.org/2000/svg">
<g clip-path="url(#clip0_33_97)">
<path d="M1.97283 20.9915L8.04544 10.4605H23.925L33.9476 27.8417L36.0305 24.2314L26.0123 6.85022H7.37169C6.49977 6.85022 5.6983 7.31307 5.26234 8.06686L0.594491 16.1602C0.158531 16.9139 0.158531 17.8441 0.594491 18.5979L1.97283 20.9915Z" fill="black"/>
<path d="M37.9725 20.9915L40.0555 17.3812L30.7374 1.22105C30.3014 0.462852 29.4956 0 28.628 0H19.2923C18.4204 0 17.6189 0.462852 17.183 1.21664L15.8046 3.61025H27.9499L37.9725 20.9915Z" fill="black"/>
<path d="M11.7269 30.6232L21.7496 13.242H17.5837L7.56104 30.6232L16.8835 46.7834C17.3195 47.5371 18.121 48 18.9929 48H28.3286C29.2005 48 30.002 47.5371 30.4379 46.7834L31.8163 44.3897H19.671L11.7313 30.6232H11.7269Z" fill="black"/>
<path d="M13.8142 13.1803H9.64837L0.325871 29.3404C-0.110089 30.0942 -0.110089 31.0243 0.325871 31.7781L4.99372 39.8714C5.42968 40.6252 6.23115 41.0881 7.10307 41.0881H9.86414L3.79153 30.5571L13.8142 13.1803Z" fill="black"/>
<path d="M35.2687 31.1213H15.2234L17.3063 34.7316H37.3516L46.6741 18.5714C47.1101 17.8176 47.1101 16.8875 46.6741 16.1337L42.0063 8.04041C41.5703 7.28662 40.7689 6.82377 39.8969 6.82377H37.1359L43.2085 17.3548L35.2687 31.1213Z" fill="black"/>
<path d="M45.2562 27.5023L39.1835 38.0332H19.1382L21.2211 41.6435H39.8617C40.7336 41.6435 41.5351 41.1806 41.971 40.4269L46.6389 32.3335C47.0749 31.5798 47.0749 30.6496 46.6389 29.8959L45.2606 27.5023H45.2562Z" fill="black"/>
</g>
<defs>
<clipPath id="clip0_33_97">
<rect width="47" height="48" fill="white"/>
</clipPath>
</defs>
</svg>
