<svg width="47" height="49" viewBox="0 0 47 49" fill="none" xmlns="http://www.w3.org/2000/svg">
<g clip-path="url(#clip0_80_87)">
<path d="M1.97283 21.4913L8.04544 10.9603H23.925L33.9476 28.3416L36.0305 24.7313L26.0123 7.3501H7.37169C6.49977 7.3501 5.6983 7.81295 5.26234 8.56674L0.594491 16.66C0.158531 17.4138 0.158531 18.3439 0.594491 19.0977L1.97283 21.4913Z" fill="white"/>
<path d="M37.9725 21.4915L40.0555 17.8812L30.7374 1.72105C30.3014 0.962852 29.4956 0.5 28.628 0.5H19.2923C18.4204 0.5 17.6189 0.962852 17.183 1.71664L15.8046 4.11025H27.9499L37.9725 21.4915Z" fill="white"/>
<path d="M11.7269 31.1234L21.7496 13.7422H17.5837L7.56104 31.1234L16.8835 47.2836C17.3195 48.0373 18.121 48.5002 18.9929 48.5002H28.3286C29.2005 48.5002 30.002 48.0373 30.4379 47.2836L31.8163 44.8899H19.671L11.7313 31.1234H11.7269Z" fill="white"/>
<path d="M13.8142 13.6802H9.64837L0.325871 29.8403C-0.110089 30.5941 -0.110089 31.5242 0.325871 32.278L4.99372 40.3713C5.42968 41.1251 6.23115 41.588 7.10307 41.588H9.86414L3.79153 31.057L13.8142 13.6802Z" fill="white"/>
<path d="M35.2687 31.6213H15.2234L17.3063 35.2315H37.3516L46.6741 19.0714C47.1101 18.3176 47.1101 17.3875 46.6741 16.6337L42.0063 8.54037C41.5703 7.78658 40.7689 7.32373 39.8969 7.32373H37.1359L43.2085 17.8547L35.2687 31.6213Z" fill="white"/>
<path d="M45.2562 28.0024L39.1835 38.5334H19.1382L21.2211 42.1437H39.8617C40.7336 42.1437 41.5351 41.6808 41.971 40.927L46.6389 32.8337C47.0749 32.08 47.0749 31.1498 46.6389 30.396L45.2606 28.0024H45.2562Z" fill="white"/>
</g>
<defs>
<clipPath id="clip0_80_87">
<rect width="47" height="48" fill="white" transform="translate(0 0.5)"/>
</clipPath>
</defs>
</svg>
