<svg width="102" height="34" viewBox="0 0 102 34" fill="none" xmlns="http://www.w3.org/2000/svg">
<rect width="102" height="34" rx="6" fill="#2F2F2F"/>
<path d="M14.5898 25.5V9.49414H20.3262C21.9948 9.49414 23.3161 9.93099 24.29 10.8047C25.2712 11.6712 25.7617 12.8529 25.7617 14.3496C25.7617 15.3451 25.5326 16.208 25.0742 16.9385C24.623 17.6618 23.9821 18.224 23.1514 18.625C22.3278 19.0189 21.3574 19.2158 20.2402 19.2158H16.5234V25.5H14.5898ZM16.5234 17.4971H20.2617C21.3717 17.4971 22.2454 17.2178 22.8828 16.6592C23.5273 16.0934 23.8496 15.3236 23.8496 14.3496C23.8496 13.3757 23.5273 12.6094 22.8828 12.0508C22.2454 11.4922 21.3717 11.2129 20.2617 11.2129H16.5234V17.4971ZM27.6094 25.5V14.1562H29.3496V15.9395H29.3926C29.6003 15.3522 29.9297 14.8796 30.3809 14.5215C30.832 14.1634 31.4121 13.9844 32.1211 13.9844C32.2858 13.9844 32.4362 13.9915 32.5723 14.0059C32.7155 14.0202 32.8229 14.0345 32.8945 14.0488V15.875C32.8229 15.8535 32.6833 15.8285 32.4756 15.7998C32.2751 15.764 32.0423 15.7461 31.7773 15.7461C31.1471 15.7461 30.5993 15.9681 30.1338 16.4121C29.6683 16.8561 29.4355 17.5579 29.4355 18.5176V25.5H27.6094ZM39.168 25.7578C38.0579 25.7578 37.109 25.5036 36.3213 24.9951C35.5407 24.4867 34.9427 23.7884 34.5273 22.9004C34.112 22.0052 33.9043 20.9883 33.9043 19.8496C33.9043 18.6966 34.1227 17.6725 34.5596 16.7773C34.9964 15.8822 35.6016 15.1803 36.375 14.6719C37.1484 14.1562 38.0365 13.8984 39.0391 13.8984C40.0918 13.8984 41.0049 14.1491 41.7783 14.6504C42.5518 15.1517 43.1462 15.8499 43.5615 16.7451C43.984 17.6403 44.1953 18.6751 44.1953 19.8496V20.3545H35.709C35.752 21.4645 36.0706 22.3669 36.665 23.0615C37.2594 23.7562 38.0938 24.1035 39.168 24.1035C39.9772 24.1035 40.6361 23.9173 41.1445 23.5449C41.6602 23.1725 42.0039 22.6927 42.1758 22.1055H44.002C43.8587 22.8288 43.5615 23.4661 43.1104 24.0176C42.6592 24.5618 42.0934 24.988 41.4131 25.2959C40.7399 25.6038 39.9915 25.7578 39.168 25.7578ZM35.7305 18.7861H42.3691C42.2689 17.7907 41.9215 16.9993 41.3271 16.4121C40.7327 15.8249 39.9701 15.5312 39.0391 15.5312C38.1081 15.5312 37.349 15.8249 36.7617 16.4121C36.1745 16.9993 35.8307 17.7907 35.7305 18.7861ZM49.2012 25.5L44.8184 14.1562H46.7949L49.2441 20.6875C49.4089 21.1243 49.5664 21.5612 49.7168 21.998C49.8672 22.4277 50.014 22.861 50.1572 23.2979C50.3076 22.861 50.458 22.4277 50.6084 21.998C50.7588 21.5612 50.9128 21.1243 51.0703 20.6875L53.4873 14.1562H55.4316L51.0488 25.5H49.2012ZM57.1074 25.5V14.1562H58.9336V25.5H57.1074ZM58.0205 11.9434C57.6768 11.9434 57.3831 11.8216 57.1396 11.5781C56.8962 11.3346 56.7744 11.041 56.7744 10.6973C56.7744 10.3535 56.8962 10.0599 57.1396 9.81641C57.3831 9.57292 57.6768 9.45117 58.0205 9.45117C58.3643 9.45117 58.6579 9.57292 58.9014 9.81641C59.1449 10.0599 59.2666 10.3535 59.2666 10.6973C59.2666 11.041 59.1449 11.3346 58.9014 11.5781C58.6579 11.8216 58.3643 11.9434 58.0205 11.9434ZM66.3242 25.7578C65.2142 25.7578 64.2653 25.5036 63.4775 24.9951C62.6969 24.4867 62.099 23.7884 61.6836 22.9004C61.2682 22.0052 61.0605 20.9883 61.0605 19.8496C61.0605 18.6966 61.279 17.6725 61.7158 16.7773C62.1527 15.8822 62.7578 15.1803 63.5312 14.6719C64.3047 14.1562 65.1927 13.8984 66.1953 13.8984C67.248 13.8984 68.1611 14.1491 68.9346 14.6504C69.708 15.1517 70.3024 15.8499 70.7178 16.7451C71.1403 17.6403 71.3516 18.6751 71.3516 19.8496V20.3545H62.8652C62.9082 21.4645 63.2269 22.3669 63.8213 23.0615C64.4157 23.7562 65.25 24.1035 66.3242 24.1035C67.1335 24.1035 67.7923 23.9173 68.3008 23.5449C68.8164 23.1725 69.1602 22.6927 69.332 22.1055H71.1582C71.015 22.8288 70.7178 23.4661 70.2666 24.0176C69.8154 24.5618 69.2497 24.988 68.5693 25.2959C67.8962 25.6038 67.1478 25.7578 66.3242 25.7578ZM62.8867 18.7861H69.5254C69.4251 17.7907 69.0778 16.9993 68.4834 16.4121C67.889 15.8249 67.1263 15.5312 66.1953 15.5312C65.2643 15.5312 64.5052 15.8249 63.918 16.4121C63.3307 16.9993 62.987 17.7907 62.8867 18.7861ZM75.5195 25.5L71.9961 14.1562H73.9082L75.3369 19.1406C75.5374 19.8281 75.7272 20.5299 75.9062 21.2461C76.0924 21.9622 76.2786 22.6712 76.4648 23.373C76.651 22.6712 76.8372 21.9622 77.0234 21.2461C77.2096 20.5299 77.403 19.8281 77.6035 19.1406L79.043 14.1562H80.8477L82.2656 19.1406C82.459 19.821 82.6452 20.5156 82.8242 21.2246C83.0104 21.9336 83.1966 22.6318 83.3828 23.3193C83.569 22.6318 83.7552 21.9336 83.9414 21.2246C84.1276 20.5156 84.321 19.821 84.5215 19.1406L85.9824 14.1562H87.8945L84.3711 25.5H82.459L80.9658 20.3438C80.7868 19.7207 80.6149 19.0869 80.4502 18.4424C80.2855 17.7907 80.1172 17.1462 79.9453 16.5088C79.7806 17.1462 79.6123 17.7907 79.4404 18.4424C79.2686 19.0869 79.0931 19.7207 78.9141 20.3438L77.3887 25.5H75.5195Z" fill="white"/>
</svg>
