<svg width="505" height="297" viewBox="0 0 505 297" fill="none" xmlns="http://www.w3.org/2000/svg">
<rect width="505" height="297" rx="19" fill="white"/>
<path d="M193.164 268.292H311.836C334.97 268.292 346.479 256.559 346.479 233.315V131.851C346.479 117.433 344.915 111.177 335.976 102.013L274.289 39.3255C265.802 30.6051 258.87 28.7075 246.245 28.7075H193.164C170.145 28.7075 158.521 40.5509 158.521 63.7989V233.315C158.521 256.668 170.145 268.292 193.164 268.292ZM194.056 250.303C182.546 250.303 176.51 244.153 176.51 232.982V64.1327C176.51 53.0713 182.546 46.6966 194.17 46.6966H243.784V111.625C243.784 125.705 250.936 132.633 264.792 132.633H328.49V232.982C328.49 244.153 322.564 250.303 310.944 250.303H194.056ZM266.804 115.754C262.446 115.754 260.653 113.971 260.653 109.499V50.1629L325.019 115.759L266.804 115.754Z" fill="#2F2F2F"/>
<path d="M253.875 199.52C248.933 199.509 244.126 197.907 240.167 194.949V225.292C240.167 225.811 240.373 226.309 240.74 226.676C241.108 227.044 241.606 227.25 242.125 227.25H251.917C252.436 227.25 252.934 227.044 253.301 226.676C253.669 226.309 253.875 225.811 253.875 225.292V199.52ZM251.917 180.25H242.899C243.691 182.535 245.172 184.519 247.137 185.929C249.102 187.339 251.456 188.106 253.875 188.124V182.208C253.875 181.689 253.669 181.191 253.301 180.824C252.934 180.456 252.436 180.25 251.917 180.25Z" fill="#2F2F2F"/>
<path fill-rule="evenodd" clip-rule="evenodd" d="M242.346 192.055C239.906 190.244 237.924 187.887 236.559 185.172C235.194 182.457 234.485 179.46 234.487 176.421C234.487 165.664 243.208 156.946 253.963 156.946C264.718 156.946 273.439 165.666 273.439 176.421C273.445 180.446 272.2 184.372 269.875 187.656L269.777 187.792L281.016 199.028L278.082 201.96L267.006 190.886L266.869 191.007C263.312 194.165 258.719 195.905 253.963 195.897H253.875V195.917C249.484 195.897 245.513 194.469 242.346 192.055ZM269.291 176.419C269.291 180.485 267.676 184.383 264.802 187.258C261.927 190.132 258.028 191.747 253.963 191.747C249.898 191.747 245.999 190.132 243.125 187.258C240.25 184.383 238.635 180.485 238.635 176.419C238.635 172.354 240.25 168.456 243.125 165.581C245.999 162.706 249.898 161.092 253.963 161.092C258.028 161.092 261.927 162.706 264.802 165.581C267.676 168.456 269.291 172.354 269.291 176.419Z" fill="#2F2F2F"/>
<path d="M218.625 156.75C218.106 156.75 217.608 156.956 217.24 157.324C216.873 157.691 216.667 158.189 216.667 158.708V225.292C216.667 225.811 216.873 226.309 217.24 226.676C217.608 227.044 218.106 227.25 218.625 227.25H228.417C228.936 227.25 229.434 227.044 229.801 226.676C230.169 226.309 230.375 225.811 230.375 225.292V158.708C230.375 158.189 230.169 157.691 229.801 157.324C229.434 156.956 228.936 156.75 228.417 156.75H218.625ZM263.667 209.625C263.667 209.106 263.873 208.608 264.24 208.24C264.608 207.873 265.106 207.667 265.625 207.667H275.417C275.936 207.667 276.434 207.873 276.801 208.24C277.169 208.608 277.375 209.106 277.375 209.625V225.292C277.375 225.811 277.169 226.309 276.801 226.676C276.434 227.044 275.936 227.25 275.417 227.25H265.625C265.106 227.25 264.608 227.044 264.24 226.676C263.873 226.309 263.667 225.811 263.667 225.292V209.625Z" fill="#2F2F2F"/>
</svg>
