<svg width="106" height="106" viewBox="0 0 106 106" fill="none" xmlns="http://www.w3.org/2000/svg">
<path d="M57.4167 39.7499H81.7083L57.4167 15.4583V39.7499ZM26.5 8.83325H61.8333L88.3333 35.3333V88.3333C88.3333 90.676 87.4027 92.9228 85.7461 94.5794C84.0895 96.2359 81.8427 97.1666 79.5 97.1666H26.5C24.1573 97.1666 21.9105 96.2359 20.2539 94.5794C18.5973 92.9228 17.6667 90.676 17.6667 88.3333V17.6666C17.6667 12.7641 21.5975 8.83325 26.5 8.83325ZM61.8333 88.3333V83.9166C61.8333 78.0424 50.0408 75.0833 44.1667 75.0833C38.2925 75.0833 26.5 78.0424 26.5 83.9166V88.3333H61.8333ZM44.1667 52.9999C41.8239 52.9999 39.5771 53.9306 37.9206 55.5871C36.264 57.2437 35.3333 59.4905 35.3333 61.8333C35.3333 64.176 36.264 66.4228 37.9206 68.0794C39.5771 69.7359 41.8239 70.6666 44.1667 70.6666C46.5094 70.6666 48.7562 69.7359 50.4128 68.0794C52.0694 66.4228 53 64.176 53 61.8333C53 59.4905 52.0694 57.2437 50.4128 55.5871C48.7562 53.9306 46.5094 52.9999 44.1667 52.9999Z" fill="#FF2D55"/>
</svg>
