<svg width="138" height="138" viewBox="0 0 138 138" fill="none" xmlns="http://www.w3.org/2000/svg">
<path d="M94.07 80.5C94.53 76.705 94.875 72.91 94.875 69C94.875 65.09 94.53 61.295 94.07 57.5H113.505C114.425 61.18 115 65.0325 115 69C115 72.9675 114.425 76.82 113.505 80.5M83.8925 112.47C87.3425 106.087 89.9875 99.1875 91.8275 92H108.79C103.219 101.593 94.3812 108.859 83.8925 112.47ZM82.455 80.5H55.545C54.97 76.705 54.625 72.91 54.625 69C54.625 65.09 54.97 61.2375 55.545 57.5H82.455C82.9725 61.2375 83.375 65.09 83.375 69C83.375 72.91 82.9725 76.705 82.455 80.5ZM69 114.77C64.2275 107.87 60.375 100.222 58.0175 92H79.9825C77.625 100.222 73.7725 107.87 69 114.77ZM46 46H29.21C34.7222 36.3804 43.5543 29.1021 54.05 25.53C50.6 31.9125 48.0125 38.8125 46 46ZM29.21 92H46C48.0125 99.1875 50.6 106.087 54.05 112.47C43.575 108.861 34.7547 101.592 29.21 92ZM24.495 80.5C23.575 76.82 23 72.9675 23 69C23 65.0325 23.575 61.18 24.495 57.5H43.93C43.47 61.295 43.125 65.09 43.125 69C43.125 72.91 43.47 76.705 43.93 80.5M69 23.1725C73.7725 30.0725 77.625 37.7775 79.9825 46H58.0175C60.375 37.7775 64.2275 30.0725 69 23.1725ZM108.79 46H91.8275C90.0251 38.8793 87.3604 32.0051 83.8925 25.53C94.4725 29.1525 103.27 36.455 108.79 46ZM69 11.5C37.2025 11.5 11.5 37.375 11.5 69C11.5 84.2499 17.558 98.8753 28.3414 109.659C33.6807 114.998 40.0195 119.233 46.9957 122.123C53.9719 125.013 61.449 126.5 69 126.5C84.2499 126.5 98.8753 120.442 109.659 109.659C120.442 98.8753 126.5 84.2499 126.5 69C126.5 61.449 125.013 53.9719 122.123 46.9957C119.233 40.0195 114.998 33.6807 109.659 28.3414C104.319 23.002 97.9805 18.7666 91.0043 15.8769C84.0281 12.9873 76.551 11.5 69 11.5Z" fill="#007AFF"/>
</svg>
